<svg width="24" height="24" viewBox="0 0 24 24" fill="none" xmlns="http://www.w3.org/2000/svg">
<path d="M10.6792 3.61651C10.891 3.43932 11.2063 3.46737 11.3835 3.67917C11.5607 3.89097 11.5326 4.2063 11.3208 4.38349L10.6792 3.61651ZM2 11.5294L1.65732 11.8935C1.55322 11.7955 1.49604 11.6577 1.50021 11.5148C1.50439 11.3719 1.56953 11.2376 1.67917 11.1459L2 11.5294ZM11.3427 19.6359C11.5438 19.8252 11.5534 20.1416 11.3641 20.3427C11.1748 20.5438 10.8584 20.5534 10.6573 20.3641L11.3427 19.6359ZM11.3208 4.38349L2.32083 11.9129L1.67917 11.1459L10.6792 3.61651L11.3208 4.38349ZM2.34268 11.1653L11.3427 19.6359L10.6573 20.3641L1.65732 11.8935L2.34268 11.1653Z" fill="#484A54"/>
<path d="M2 11C1.72386 11 1.5 11.2239 1.5 11.5C1.5 11.7761 1.72386 12 2 12V11ZM20.5 12C20.7761 12 21 11.7761 21 11.5C21 11.2239 20.7761 11 20.5 11V12ZM2 12H20.5V11H2V12Z" fill="#484A54"/>
</svg>
