<svg width="24" height="24" viewBox="0 0 24 24" fill="none" xmlns="http://www.w3.org/2000/svg">
<circle cx="10" cy="19" r="1.5" stroke="#484A54"/>
<circle cx="15" cy="19" r="1.5" stroke="#484A54"/>
<path d="M1 3.5H3.66667L4.48718 6.03846M4.48718 6.03846L7.22222 14.5H18.3333L21 6.03846H4.48718Z" stroke="#484A54" stroke-linecap="round" stroke-linejoin="round"/>
<path d="M7.5 15C7.77614 15 8 14.7761 8 14.5C8 14.2239 7.77614 14 7.5 14V15ZM18.5 18C18.7761 18 19 17.7761 19 17.5C19 17.2239 18.7761 17 18.5 17V18ZM7.5 14C6.02471 14 5.125 14.9256 5.125 16C5.125 17.0744 6.02472 18 7.50001 18V17C6.47529 17 6.125 16.4256 6.125 16C6.125 15.5744 6.47528 15 7.5 15V14ZM7.50001 18C7.5049 18 7.50979 18 7.51469 18C7.5196 18 7.52451 18 7.52943 18C7.53436 18 7.53929 18 7.54423 18C7.54918 18 7.55413 18 7.55909 18C7.56406 18 7.56903 18 7.57401 18C7.57899 18 7.58399 18 7.58899 18C7.59399 18 7.59901 18 7.60403 18C7.60905 18 7.61408 18 7.61913 18C7.62417 18 7.62922 18 7.63428 18C7.63935 18 7.64442 18 7.6495 18C7.65458 18 7.65967 18 7.66477 18C7.66988 18 7.67499 18 7.68011 18C7.68523 18 7.69036 18 7.6955 18C7.70064 18 7.70579 18 7.71095 18C7.71611 18 7.72128 18 7.72646 18C7.73163 18 7.73682 18 7.74202 18C7.74722 18 7.75243 18 7.75764 18C7.76286 18 7.76809 18 7.77332 18C7.77856 18 7.7838 18 7.78906 18C7.79431 18 7.79958 18 7.80485 18C7.81013 18 7.81541 18 7.8207 18C7.826 18 7.8313 18 7.83661 18C7.84192 18 7.84724 18 7.85257 18C7.8579 18 7.86324 18 7.86859 18C7.87394 18 7.8793 18 7.88467 18C7.89003 18 7.89541 18 7.9008 18C7.90618 18 7.91158 18 7.91698 18C7.92239 18 7.9278 18 7.93323 18C7.93865 18 7.94408 18 7.94952 18C7.95496 18 7.96041 18 7.96587 18C7.97133 18 7.9768 18 7.98228 18C7.98776 18 7.99324 18 7.99874 18C8.00424 18 8.00974 18 8.01525 18C8.02077 18 8.02629 18 8.03182 18C8.03736 18 8.0429 18 8.04845 18C8.054 18 8.05956 18 8.06512 18C8.07069 18 8.07627 18 8.08185 18C8.08744 18 8.09303 18 8.09864 18C8.10424 18 8.10985 18 8.11547 18C8.12109 18 8.12672 18 8.13236 18C8.138 18 8.14365 18 8.14931 18C8.15496 18 8.16063 18 8.1663 18C8.17197 18 8.17766 18 8.18335 18C8.18904 18 8.19474 18 8.20045 18C8.20615 18 8.21187 18 8.2176 18C8.22332 18 8.22906 18 8.2348 18C8.24054 18 8.24629 18 8.25205 18C8.25781 18 8.26358 18 8.26936 18C8.27514 18 8.28092 18 8.28672 18C8.29251 18 8.29831 18 8.30412 18C8.30993 18 8.31575 18 8.32158 18C8.32741 18 8.33325 18 8.33909 18C8.34493 18 8.35079 18 8.35665 18C8.36251 18 8.36838 18 8.37426 18C8.38014 18 8.38602 18 8.39192 18C8.39781 18 8.40372 18 8.40963 18C8.41554 18 8.42146 18 8.42738 18C8.43331 18 8.43925 18 8.44519 18C8.45114 18 8.45709 18 8.46305 18C8.46901 18 8.47498 18 8.48095 18C8.48693 18 8.49292 18 8.49891 18C8.5049 18 8.5109 18 8.51691 18C8.52292 18 8.52894 18 8.53496 18C8.54099 18 8.54702 18 8.55306 18C8.5591 18 8.56515 18 8.57121 18C8.57727 18 8.58333 18 8.58941 18C8.59548 18 8.60156 18 8.60765 18C8.61374 18 8.61983 18 8.62594 18C8.63204 18 8.63815 18 8.64427 18C8.6504 18 8.65652 18 8.66266 18C8.66879 18 8.67494 18 8.68109 18C8.68724 18 8.6934 18 8.69957 18C8.70573 18 8.71191 18 8.71809 18C8.72427 18 8.73046 18 8.73666 18C8.74286 18 8.74906 18 8.75528 18C8.76149 18 8.76771 18 8.77394 18C8.78017 18 8.7864 18 8.79264 18C8.79889 18 8.80514 18 8.8114 18C8.81765 18 8.82392 18 8.83019 18C8.83647 18 8.84275 18 8.84904 18C8.85532 18 8.86162 18 8.86792 18C8.87423 18 8.88054 18 8.88685 18C8.89317 18 8.8995 18 8.90583 18C8.91216 18 8.9185 18 8.92485 18C8.9312 18 8.93755 18 8.94392 18C8.95028 18 8.95665 18 8.96302 18C8.9694 18 8.97578 18 8.98217 18C8.98857 18 8.99496 18 9.00137 18C9.00777 18 9.01419 18 9.02061 18C9.02703 18 9.03345 18 9.03989 18C9.04632 18 9.05276 18 9.05921 18C9.06566 18 9.07212 18 9.07858 18C9.08504 18 9.09151 18 9.09799 18C9.10446 18 9.11095 18 9.11744 18C9.12393 18 9.13042 18 9.13693 18C9.14343 18 9.14995 18 9.15646 18C9.16298 18 9.16951 18 9.17604 18C9.18257 18 9.18911 18 9.19566 18C9.2022 18 9.20876 18 9.21532 18C9.22188 18 9.22844 18 9.23501 18C9.24159 18 9.24817 18 9.25476 18C9.26134 18 9.26794 18 9.27454 18C9.28114 18 9.28774 18 9.29436 18C9.30097 18 9.30759 18 9.31422 18C9.32085 18 9.32748 18 9.33412 18C9.34076 18 9.34741 18 9.35406 18C9.36071 18 9.36737 18 9.37404 18C9.38071 18 9.38738 18 9.39406 18C9.40074 18 9.40743 18 9.41412 18C9.42081 18 9.42751 18 9.43422 18C9.44092 18 9.44764 18 9.45436 18C9.46107 18 9.4678 18 9.47453 18C9.48126 18 9.488 18 9.49474 18C9.50149 18 9.50824 18 9.515 18C9.52175 18 9.52852 18 9.53529 18C9.54206 18 9.54883 18 9.55561 18C9.5624 18 9.56919 18 9.57598 18C9.58277 18 9.58958 18 9.59638 18C9.60319 18 9.61 18 9.61682 18C9.62364 18 9.63047 18 9.6373 18C9.64413 18 9.65097 18 9.65781 18C9.66466 18 9.67151 18 9.67836 18C9.68522 18 9.69208 18 9.69895 18C9.70582 18 9.71269 18 9.71957 18C9.72645 18 9.73334 18 9.74023 18C9.74712 18 9.75402 18 9.76093 18C9.76783 18 9.77474 18 9.78166 18C9.78857 18 9.79549 18 9.80242 18C9.80935 18 9.81628 18 9.82322 18C9.83016 18 9.83711 18 9.84406 18C9.85101 18 9.85797 18 9.86493 18C9.87189 18 9.87886 18 9.88583 18C9.89281 18 9.89979 18 9.90677 18C9.91376 18 9.92075 18 9.92775 18C9.93474 18 9.94175 18 9.94876 18C9.95576 18 9.96278 18 9.9698 18C9.97682 18 9.98384 18 9.99087 18C9.9979 18 10.0049 18 10.012 18C10.019 18 10.0261 18 10.0331 18C10.0402 18 10.0472 18 10.0543 18C10.0614 18 10.0684 18 10.0755 18C10.0826 18 10.0897 18 10.0967 18C10.1038 18 10.1109 18 10.118 18C10.1251 18 10.1322 18 10.1393 18C10.1464 18 10.1535 18 10.1607 18C10.1678 18 10.1749 18 10.182 18C10.1892 18 10.1963 18 10.2034 18C10.2106 18 10.2177 18 10.2249 18C10.232 18 10.2392 18 10.2463 18C10.2535 18 10.2606 18 10.2678 18C10.275 18 10.2822 18 10.2893 18C10.2965 18 10.3037 18 10.3109 18C10.3181 18 10.3253 18 10.3325 18C10.3397 18 10.3469 18 10.3541 18C10.3613 18 10.3685 18 10.3757 18C10.383 18 10.3902 18 10.3974 18C10.4046 18 10.4119 18 10.4191 18C10.4264 18 10.4336 18 10.4409 18C10.4481 18 10.4554 18 10.4626 18C10.4699 18 10.4771 18 10.4844 18C10.4917 18 10.499 18 10.5062 18C10.5135 18 10.5208 18 10.5281 18C10.5354 18 10.5427 18 10.55 18C10.5573 18 10.5646 18 10.5719 18C10.5792 18 10.5865 18 10.5938 18C10.6011 18 10.6084 18 10.6158 18C10.6231 18 10.6304 18 10.6378 18C10.6451 18 10.6524 18 10.6598 18C10.6671 18 10.6745 18 10.6818 18C10.6892 18 10.6965 18 10.7039 18C10.7113 18 10.7186 18 10.726 18C10.7334 18 10.7407 18 10.7481 18C10.7555 18 10.7629 18 10.7703 18C10.7777 18 10.7851 18 10.7925 18C10.7999 18 10.8073 18 10.8147 18C10.8221 18 10.8295 18 10.8369 18C10.8443 18 10.8517 18 10.8591 18C10.8666 18 10.874 18 10.8814 18C10.8889 18 10.8963 18 10.9037 18C10.9112 18 10.9186 18 10.9261 18C10.9335 18 10.941 18 10.9484 18C10.9559 18 10.9633 18 10.9708 18C10.9783 18 10.9857 18 10.9932 18C11.0007 18 11.0082 18 11.0156 18C11.0231 18 11.0306 18 11.0381 18C11.0456 18 11.0531 18 11.0606 18C11.0681 18 11.0756 18 11.0831 18C11.0906 18 11.0981 18 11.1056 18C11.1131 18 11.1206 18 11.1281 18C11.1357 18 11.1432 18 11.1507 18C11.1582 18 11.1658 18 11.1733 18C11.1808 18 11.1884 18 11.1959 18C11.2035 18 11.211 18 11.2186 18C11.2261 18 11.2337 18 11.2412 18C11.2488 18 11.2563 18 11.2639 18C11.2715 18 11.279 18 11.2866 18C11.2942 18 11.3018 18 11.3093 18C11.3169 18 11.3245 18 11.3321 18C11.3397 18 11.3473 18 11.3549 18C11.3625 18 11.3701 18 11.3777 18C11.3853 18 11.3929 18 11.4005 18C11.4081 18 11.4157 18 11.4233 18C11.4309 18 11.4385 18 11.4462 18C11.4538 18 11.4614 18 11.469 18C11.4767 18 11.4843 18 11.4919 18C11.4996 18 11.5072 18 11.5148 18C11.5225 18 11.5301 18 11.5378 18C11.5454 18 11.5531 18 11.5607 18C11.5684 18 11.576 18 11.5837 18C11.5913 18 11.599 18 11.6067 18C11.6143 18 11.622 18 11.6297 18C11.6374 18 11.645 18 11.6527 18C11.6604 18 11.6681 18 11.6758 18C11.6834 18 11.6911 18 11.6988 18C11.7065 18 11.7142 18 11.7219 18C11.7296 18 11.7373 18 11.745 18C11.7527 18 11.7604 18 11.7681 18C11.7758 18 11.7836 18 11.7913 18C11.799 18 11.8067 18 11.8144 18C11.8221 18 11.8299 18 11.8376 18C11.8453 18 11.853 18 11.8608 18C11.8685 18 11.8762 18 11.884 18C11.8917 18 11.8995 18 11.9072 18C11.9149 18 11.9227 18 11.9304 18C11.9382 18 11.9459 18 11.9537 18C11.9614 18 11.9692 18 11.977 18C11.9847 18 11.9925 18 12.0002 18C12.008 18 12.0158 18 12.0235 18C12.0313 18 12.0391 18 12.0469 18C12.0546 18 12.0624 18 12.0702 18C12.078 18 12.0857 18 12.0935 18C12.1013 18 12.1091 18 12.1169 18C12.1247 18 12.1325 18 12.1403 18C12.1481 18 12.1559 18 12.1637 18C12.1715 18 12.1793 18 12.1871 18C12.1949 18 12.2027 18 12.2105 18C12.2183 18 12.2261 18 12.2339 18C12.2417 18 12.2495 18 12.2573 18C12.2652 18 12.273 18 12.2808 18C12.2886 18 12.2965 18 12.3043 18C12.3121 18 12.3199 18 12.3278 18C12.3356 18 12.3434 18 12.3513 18C12.3591 18 12.3669 18 12.3748 18C12.3826 18 12.3904 18 12.3983 18C12.4061 18 12.414 18 12.4218 18C12.4297 18 12.4375 18 12.4454 18C12.4532 18 12.4611 18 12.4689 18C12.4768 18 12.4846 18 12.4925 18C12.5003 18 12.5082 18 12.5161 18C12.5239 18 12.5318 18 12.5397 18C12.5475 18 12.5554 18 12.5633 18C12.5711 18 12.579 18 12.5869 18C12.5947 18 12.6026 18 12.6105 18C12.6184 18 12.6262 18 12.6341 18C12.642 18 12.6499 18 12.6578 18C12.6657 18 12.6735 18 12.6814 18C12.6893 18 12.6972 18 12.7051 18C12.713 18 12.7209 18 12.7288 18C12.7366 18 12.7445 18 12.7524 18C12.7603 18 12.7682 18 12.7761 18C12.784 18 12.7919 18 12.7998 18C12.8077 18 12.8156 18 12.8235 18C12.8314 18 12.8393 18 12.8473 18C12.8552 18 12.8631 18 12.871 18C12.8789 18 12.8868 18 12.8947 18C12.9026 18 12.9105 18 12.9185 18C12.9264 18 12.9343 18 12.9422 18C12.9501 18 12.958 18 12.966 18C12.9739 18 12.9818 18 12.9897 18C12.9976 18 13.0056 18 13.0135 18C13.0214 18 13.0293 18 13.0373 18C13.0452 18 13.0531 18 13.0611 18C13.069 18 13.0769 18 13.0848 18C13.0928 18 13.1007 18 13.1086 18C13.1166 18 13.1245 18 13.1324 18C13.1404 18 13.1483 18 13.1563 18C13.1642 18 13.1721 18 13.1801 18C13.188 18 13.196 18 13.2039 18C13.2118 18 13.2198 18 13.2277 18C13.2357 18 13.2436 18 13.2515 18C13.2595 18 13.2674 18 13.2754 18C13.2833 18 13.2913 18 13.2992 18C13.3072 18 13.3151 18 13.3231 18C13.331 18 13.339 18 13.3469 18C13.3549 18 13.3628 18 13.3708 18C13.3787 18 13.3867 18 13.3946 18C13.4026 18 13.4105 18 13.4185 18C13.4265 18 13.4344 18 13.4424 18C13.4503 18 13.4583 18 13.4662 18C13.4742 18 13.4821 18 13.4901 18C13.4981 18 13.506 18 13.514 18C13.5219 18 13.5299 18 13.5379 18C13.5458 18 13.5538 18 13.5617 18C13.5697 18 13.5777 18 13.5856 18C13.5936 18 13.6015 18 13.6095 18C13.6175 18 13.6254 18 13.6334 18C13.6414 18 13.6493 18 13.6573 18C13.6652 18 13.6732 18 13.6812 18C13.6891 18 13.6971 18 13.7051 18C13.713 18 13.721 18 13.729 18C13.7369 18 13.7449 18 13.7528 18C13.7608 18 13.7688 18 13.7767 18C13.7847 18 13.7927 18 13.8006 18C13.8086 18 13.8166 18 13.8245 18C13.8325 18 13.8405 18 13.8484 18C13.8564 18 13.8644 18 13.8723 18C13.8803 18 13.8882 18 13.8962 18C13.9042 18 13.9121 18 13.9201 18C13.9281 18 13.936 18 13.944 18C13.952 18 13.9599 18 13.9679 18C13.9759 18 13.9838 18 13.9918 18C13.9998 18 14.0077 18 14.0157 18C14.0236 18 14.0316 18 14.0396 18C14.0475 18 14.0555 18 14.0635 18C14.0714 18 14.0794 18 14.0873 18C14.0953 18 14.1033 18 14.1112 18C14.1192 18 14.1271 18 14.1351 18C14.1431 18 14.151 18 14.159 18C14.1669 18 14.1749 18 14.1829 18C14.1908 18 14.1988 18 14.2067 18C14.2147 18 14.2227 18 14.2306 18C14.2386 18 14.2465 18 14.2545 18C14.2624 18 14.2704 18 14.2783 18C14.2863 18 14.2942 18 14.3022 18C14.3102 18 14.3181 18 14.3261 18C14.334 18 14.342 18 14.3499 18C14.3579 18 14.3658 18 14.3738 18C14.3817 18 14.3897 18 14.3976 18C14.4056 18 14.4135 18 14.4214 18C14.4294 18 14.4373 18 14.4453 18C14.4532 18 14.4612 18 14.4691 18C14.4771 18 14.485 18 14.4929 18C14.5009 18 14.5088 18 14.5168 18C14.5247 18 14.5326 18 14.5406 18C14.5485 18 14.5564 18 14.5644 18C14.5723 18 14.5802 18 14.5882 18C14.5961 18 14.604 18 14.612 18C14.6199 18 14.6278 18 14.6358 18C14.6437 18 14.6516 18 14.6595 18C14.6675 18 14.6754 18 14.6833 18C14.6912 18 14.6992 18 14.7071 18C14.715 18 14.7229 18 14.7309 18C14.7388 18 14.7467 18 14.7546 18C14.7625 18 14.7704 18 14.7784 18C14.7863 18 14.7942 18 14.8021 18C14.81 18 14.8179 18 14.8258 18C14.8337 18 14.8416 18 14.8495 18C14.8575 18 14.8654 18 14.8733 18C14.8812 18 14.8891 18 14.897 18C14.9049 18 14.9128 18 14.9207 18C14.9286 18 14.9365 18 14.9443 18C14.9522 18 14.9601 18 14.968 18C14.9759 18 14.9838 18 14.9917 18C14.9996 18 15.0075 18 15.0154 18C15.0232 18 15.0311 18 15.039 18C15.0469 18 15.0548 18 15.0626 18C15.0705 18 15.0784 18 15.0863 18C15.0942 18 15.102 18 15.1099 18C15.1178 18 15.1256 18 15.1335 18C15.1414 18 15.1492 18 15.1571 18C15.165 18 15.1728 18 15.1807 18C15.1886 18 15.1964 18 15.2043 18C15.2121 18 15.22 18 15.2278 18C15.2357 18 15.2435 18 15.2514 18C15.2592 18 15.2671 18 15.2749 18C15.2828 18 15.2906 18 15.2985 18C15.3063 18 15.3141 18 15.322 18C15.3298 18 15.3376 18 15.3455 18C15.3533 18 15.3611 18 15.369 18C15.3768 18 15.3846 18 15.3925 18C15.4003 18 15.4081 18 15.4159 18C15.4237 18 15.4316 18 15.4394 18C15.4472 18 15.455 18 15.4628 18C15.4706 18 15.4784 18 15.4862 18C15.494 18 15.5018 18 15.5097 18C15.5175 18 15.5253 18 15.533 18C15.5408 18 15.5486 18 15.5564 18C15.5642 18 15.572 18 15.5798 18C15.5876 18 15.5954 18 15.6032 18C15.6109 18 15.6187 18 15.6265 18C15.6343 18 15.6421 18 15.6498 18C15.6576 18 15.6654 18 15.6731 18C15.6809 18 15.6887 18 15.6964 18C15.7042 18 15.712 18 15.7197 18C15.7275 18 15.7352 18 15.743 18C15.7507 18 15.7585 18 15.7662 18C15.774 18 15.7817 18 15.7895 18C15.7972 18 15.8049 18 15.8127 18C15.8204 18 15.8281 18 15.8359 18C15.8436 18 15.8513 18 15.8591 18C15.8668 18 15.8745 18 15.8822 18C15.8899 18 15.8977 18 15.9054 18C15.9131 18 15.9208 18 15.9285 18C15.9362 18 15.9439 18 15.9516 18C15.9593 18 15.967 18 15.9747 18C15.9824 18 15.9901 18 15.9978 18C16.0055 18 16.0132 18 16.0208 18C16.0285 18 16.0362 18 16.0439 18C16.0516 18 16.0592 18 16.0669 18C16.0746 18 16.0823 18 16.0899 18C16.0976 18 16.1052 18 16.1129 18C16.1206 18 16.1282 18 16.1359 18C16.1435 18 16.1512 18 16.1588 18C16.1665 18 16.1741 18 16.1817 18C16.1894 18 16.197 18 16.2047 18C16.2123 18 16.2199 18 16.2275 18C16.2352 18 16.2428 18 16.2504 18C16.258 18 16.2656 18 16.2733 18C16.2809 18 16.2885 18 16.2961 18C16.3037 18 16.3113 18 16.3189 18C16.3265 18 16.3341 18 16.3417 18C16.3493 18 16.3568 18 16.3644 18C16.372 18 16.3796 18 16.3872 18C16.3948 18 16.4023 18 16.4099 18C16.4175 18 16.425 18 16.4326 18C16.4402 18 16.4477 18 16.4553 18C16.4628 18 16.4704 18 16.4779 18C16.4855 18 16.493 18 16.5006 18C16.5081 18 16.5156 18 16.5232 18C16.5307 18 16.5382 18 16.5458 18C16.5533 18 16.5608 18 16.5683 18C16.5758 18 16.5834 18 16.5909 18C16.5984 18 16.6059 18 16.6134 18C16.6209 18 16.6284 18 16.6359 18C16.6434 18 16.6509 18 16.6584 18C16.6658 18 16.6733 18 16.6808 18C16.6883 18 16.6958 18 16.7032 18C16.7107 18 16.7182 18 16.7256 18C16.7331 18 16.7405 18 16.748 18C16.7555 18 16.7629 18 16.7703 18C16.7778 18 16.7852 18 16.7927 18C16.8001 18 16.8075 18 16.815 18C16.8224 18 16.8298 18 16.8372 18C16.8447 18 16.8521 18 16.8595 18C16.8669 18 16.8743 18 16.8817 18C16.8891 18 16.8965 18 16.9039 18C16.9113 18 16.9187 18 16.9261 18C16.9335 18 16.9409 18 16.9482 18C16.9556 18 16.963 18 16.9703 18C16.9777 18 16.9851 18 16.9924 18C16.9998 18 17.0072 18 17.0145 18C17.0219 18 17.0292 18 17.0365 18C17.0439 18 17.0512 18 17.0586 18C17.0659 18 17.0732 18 17.0805 18C17.0879 18 17.0952 18 17.1025 18C17.1098 18 17.1171 18 17.1244 18C17.1317 18 17.139 18 17.1463 18C17.1536 18 17.1609 18 17.1682 18C17.1755 18 17.1828 18 17.19 18C17.1973 18 17.2046 18 17.2118 18C17.2191 18 17.2264 18 17.2336 18C17.2409 18 17.2481 18 17.2554 18C17.2626 18 17.2699 18 17.2771 18C17.2844 18 17.2916 18 17.2988 18C17.306 18 17.3133 18 17.3205 18C17.3277 18 17.3349 18 17.3421 18C17.3493 18 17.3565 18 17.3637 18C17.3709 18 17.3781 18 17.3853 18C17.3925 18 17.3997 18 17.4068 18C17.414 18 17.4212 18 17.4284 18C17.4355 18 17.4427 18 17.4498 18C17.457 18 17.4642 18 17.4713 18C17.4784 18 17.4856 18 17.4927 18C17.4999 18 17.507 18 17.5141 18C17.5212 18 17.5284 18 17.5355 18C17.5426 18 17.5497 18 17.5568 18C17.5639 18 17.571 18 17.5781 18C17.5852 18 17.5923 18 17.5994 18C17.6064 18 17.6135 18 17.6206 18C17.6277 18 17.6347 18 17.6418 18C17.6489 18 17.6559 18 17.663 18C17.67 18 17.6771 18 17.6841 18C17.6911 18 17.6982 18 17.7052 18C17.7122 18 17.7192 18 17.7263 18C17.7333 18 17.7403 18 17.7473 18C17.7543 18 17.7613 18 17.7683 18C17.7753 18 17.7823 18 17.7893 18C17.7962 18 17.8032 18 17.8102 18C17.8172 18 17.8241 18 17.8311 18C17.838 18 17.845 18 17.8519 18C17.8589 18 17.8658 18 17.8728 18C17.8797 18 17.8866 18 17.8936 18C17.9005 18 17.9074 18 17.9143 18C17.9212 18 17.9281 18 17.935 18C17.9419 18 17.9488 18 17.9557 18C17.9626 18 17.9695 18 17.9764 18C17.9832 18 17.9901 18 17.997 18C18.0038 18 18.0107 18 18.0176 18C18.0244 18 18.0313 18 18.0381 18C18.0449 18 18.0518 18 18.0586 18C18.0654 18 18.0722 18 18.0791 18C18.0859 18 18.0927 18 18.0995 18C18.1063 18 18.1131 18 18.1199 18C18.1267 18 18.1335 18 18.1402 18C18.147 18 18.1538 18 18.1606 18C18.1673 18 18.1741 18 18.1808 18C18.1876 18 18.1943 18 18.2011 18C18.2078 18 18.2146 18 18.2213 18C18.228 18 18.2347 18 18.2414 18C18.2482 18 18.2549 18 18.2616 18C18.2683 18 18.275 18 18.2817 18C18.2883 18 18.295 18 18.3017 18C18.3084 18 18.3151 18 18.3217 18C18.3284 18 18.335 18 18.3417 18C18.3483 18 18.355 18 18.3616 18C18.3683 18 18.3749 18 18.3815 18C18.3881 18 18.3947 18 18.4014 18C18.408 18 18.4146 18 18.4212 18C18.4278 18 18.4344 18 18.4409 18C18.4475 18 18.4541 18 18.4607 18C18.4672 18 18.4738 18 18.4804 18C18.4869 18 18.4935 18 18.5 18V17C18.4935 17 18.4869 17 18.4804 17C18.4738 17 18.4672 17 18.4607 17C18.4541 17 18.4475 17 18.4409 17C18.4344 17 18.4278 17 18.4212 17C18.4146 17 18.408 17 18.4014 17C18.3947 17 18.3881 17 18.3815 17C18.3749 17 18.3683 17 18.3616 17C18.355 17 18.3483 17 18.3417 17C18.335 17 18.3284 17 18.3217 17C18.3151 17 18.3084 17 18.3017 17C18.295 17 18.2883 17 18.2817 17C18.275 17 18.2683 17 18.2616 17C18.2549 17 18.2482 17 18.2414 17C18.2347 17 18.228 17 18.2213 17C18.2146 17 18.2078 17 18.2011 17C18.1943 17 18.1876 17 18.1808 17C18.1741 17 18.1673 17 18.1606 17C18.1538 17 18.147 17 18.1402 17C18.1335 17 18.1267 17 18.1199 17C18.1131 17 18.1063 17 18.0995 17C18.0927 17 18.0859 17 18.0791 17C18.0722 17 18.0654 17 18.0586 17C18.0518 17 18.0449 17 18.0381 17C18.0313 17 18.0244 17 18.0176 17C18.0107 17 18.0038 17 17.997 17C17.9901 17 17.9832 17 17.9764 17C17.9695 17 17.9626 17 17.9557 17C17.9488 17 17.9419 17 17.935 17C17.9281 17 17.9212 17 17.9143 17C17.9074 17 17.9005 17 17.8936 17C17.8866 17 17.8797 17 17.8728 17C17.8658 17 17.8589 17 17.8519 17C17.845 17 17.838 17 17.8311 17C17.8241 17 17.8172 17 17.8102 17C17.8032 17 17.7962 17 17.7893 17C17.7823 17 17.7753 17 17.7683 17C17.7613 17 17.7543 17 17.7473 17C17.7403 17 17.7333 17 17.7263 17C17.7192 17 17.7122 17 17.7052 17C17.6982 17 17.6911 17 17.6841 17C17.6771 17 17.67 17 17.663 17C17.6559 17 17.6489 17 17.6418 17C17.6347 17 17.6277 17 17.6206 17C17.6135 17 17.6064 17 17.5994 17C17.5923 17 17.5852 17 17.5781 17C17.571 17 17.5639 17 17.5568 17C17.5497 17 17.5426 17 17.5355 17C17.5284 17 17.5212 17 17.5141 17C17.507 17 17.4999 17 17.4927 17C17.4856 17 17.4784 17 17.4713 17C17.4642 17 17.457 17 17.4498 17C17.4427 17 17.4355 17 17.4284 17C17.4212 17 17.414 17 17.4068 17C17.3997 17 17.3925 17 17.3853 17C17.3781 17 17.3709 17 17.3637 17C17.3565 17 17.3493 17 17.3421 17C17.3349 17 17.3277 17 17.3205 17C17.3133 17 17.306 17 17.2988 17C17.2916 17 17.2844 17 17.2771 17C17.2699 17 17.2626 17 17.2554 17C17.2481 17 17.2409 17 17.2336 17C17.2264 17 17.2191 17 17.2118 17C17.2046 17 17.1973 17 17.19 17C17.1828 17 17.1755 17 17.1682 17C17.1609 17 17.1536 17 17.1463 17C17.139 17 17.1317 17 17.1244 17C17.1171 17 17.1098 17 17.1025 17C17.0952 17 17.0879 17 17.0805 17C17.0732 17 17.0659 17 17.0586 17C17.0512 17 17.0439 17 17.0365 17C17.0292 17 17.0219 17 17.0145 17C17.0072 17 16.9998 17 16.9924 17C16.9851 17 16.9777 17 16.9703 17C16.963 17 16.9556 17 16.9482 17C16.9409 17 16.9335 17 16.9261 17C16.9187 17 16.9113 17 16.9039 17C16.8965 17 16.8891 17 16.8817 17C16.8743 17 16.8669 17 16.8595 17C16.8521 17 16.8447 17 16.8372 17C16.8298 17 16.8224 17 16.815 17C16.8075 17 16.8001 17 16.7927 17C16.7852 17 16.7778 17 16.7703 17C16.7629 17 16.7555 17 16.748 17C16.7405 17 16.7331 17 16.7256 17C16.7182 17 16.7107 17 16.7032 17C16.6958 17 16.6883 17 16.6808 17C16.6733 17 16.6658 17 16.6584 17C16.6509 17 16.6434 17 16.6359 17C16.6284 17 16.6209 17 16.6134 17C16.6059 17 16.5984 17 16.5909 17C16.5834 17 16.5758 17 16.5683 17C16.5608 17 16.5533 17 16.5458 17C16.5382 17 16.5307 17 16.5232 17C16.5156 17 16.5081 17 16.5006 17C16.493 17 16.4855 17 16.4779 17C16.4704 17 16.4628 17 16.4553 17C16.4477 17 16.4402 17 16.4326 17C16.425 17 16.4175 17 16.4099 17C16.4023 17 16.3948 17 16.3872 17C16.3796 17 16.372 17 16.3644 17C16.3568 17 16.3493 17 16.3417 17C16.3341 17 16.3265 17 16.3189 17C16.3113 17 16.3037 17 16.2961 17C16.2885 17 16.2809 17 16.2733 17C16.2656 17 16.258 17 16.2504 17C16.2428 17 16.2352 17 16.2275 17C16.2199 17 16.2123 17 16.2047 17C16.197 17 16.1894 17 16.1817 17C16.1741 17 16.1665 17 16.1588 17C16.1512 17 16.1435 17 16.1359 17C16.1282 17 16.1206 17 16.1129 17C16.1052 17 16.0976 17 16.0899 17C16.0823 17 16.0746 17 16.0669 17C16.0592 17 16.0516 17 16.0439 17C16.0362 17 16.0285 17 16.0208 17C16.0132 17 16.0055 17 15.9978 17C15.9901 17 15.9824 17 15.9747 17C15.967 17 15.9593 17 15.9516 17C15.9439 17 15.9362 17 15.9285 17C15.9208 17 15.9131 17 15.9054 17C15.8977 17 15.8899 17 15.8822 17C15.8745 17 15.8668 17 15.8591 17C15.8513 17 15.8436 17 15.8359 17C15.8281 17 15.8204 17 15.8127 17C15.8049 17 15.7972 17 15.7895 17C15.7817 17 15.774 17 15.7662 17C15.7585 17 15.7507 17 15.743 17C15.7352 17 15.7275 17 15.7197 17C15.712 17 15.7042 17 15.6964 17C15.6887 17 15.6809 17 15.6731 17C15.6654 17 15.6576 17 15.6498 17C15.6421 17 15.6343 17 15.6265 17C15.6187 17 15.6109 17 15.6032 17C15.5954 17 15.5876 17 15.5798 17C15.572 17 15.5642 17 15.5564 17C15.5486 17 15.5408 17 15.533 17C15.5253 17 15.5175 17 15.5097 17C15.5018 17 15.494 17 15.4862 17C15.4784 17 15.4706 17 15.4628 17C15.455 17 15.4472 17 15.4394 17C15.4316 17 15.4237 17 15.4159 17C15.4081 17 15.4003 17 15.3925 17C15.3846 17 15.3768 17 15.369 17C15.3611 17 15.3533 17 15.3455 17C15.3376 17 15.3298 17 15.322 17C15.3141 17 15.3063 17 15.2985 17C15.2906 17 15.2828 17 15.2749 17C15.2671 17 15.2592 17 15.2514 17C15.2435 17 15.2357 17 15.2278 17C15.22 17 15.2121 17 15.2043 17C15.1964 17 15.1886 17 15.1807 17C15.1728 17 15.165 17 15.1571 17C15.1492 17 15.1414 17 15.1335 17C15.1256 17 15.1178 17 15.1099 17C15.102 17 15.0942 17 15.0863 17C15.0784 17 15.0705 17 15.0626 17C15.0548 17 15.0469 17 15.039 17C15.0311 17 15.0232 17 15.0154 17C15.0075 17 14.9996 17 14.9917 17C14.9838 17 14.9759 17 14.968 17C14.9601 17 14.9522 17 14.9443 17C14.9365 17 14.9286 17 14.9207 17C14.9128 17 14.9049 17 14.897 17C14.8891 17 14.8812 17 14.8733 17C14.8654 17 14.8575 17 14.8495 17C14.8416 17 14.8337 17 14.8258 17C14.8179 17 14.81 17 14.8021 17C14.7942 17 14.7863 17 14.7784 17C14.7704 17 14.7625 17 14.7546 17C14.7467 17 14.7388 17 14.7309 17C14.7229 17 14.715 17 14.7071 17C14.6992 17 14.6912 17 14.6833 17C14.6754 17 14.6675 17 14.6595 17C14.6516 17 14.6437 17 14.6358 17C14.6278 17 14.6199 17 14.612 17C14.604 17 14.5961 17 14.5882 17C14.5802 17 14.5723 17 14.5644 17C14.5564 17 14.5485 17 14.5406 17C14.5326 17 14.5247 17 14.5168 17C14.5088 17 14.5009 17 14.4929 17C14.485 17 14.4771 17 14.4691 17C14.4612 17 14.4532 17 14.4453 17C14.4373 17 14.4294 17 14.4214 17C14.4135 17 14.4056 17 14.3976 17C14.3897 17 14.3817 17 14.3738 17C14.3658 17 14.3579 17 14.3499 17C14.342 17 14.334 17 14.3261 17C14.3181 17 14.3102 17 14.3022 17C14.2942 17 14.2863 17 14.2783 17C14.2704 17 14.2624 17 14.2545 17C14.2465 17 14.2386 17 14.2306 17C14.2227 17 14.2147 17 14.2067 17C14.1988 17 14.1908 17 14.1829 17C14.1749 17 14.1669 17 14.159 17C14.151 17 14.1431 17 14.1351 17C14.1271 17 14.1192 17 14.1112 17C14.1033 17 14.0953 17 14.0873 17C14.0794 17 14.0714 17 14.0635 17C14.0555 17 14.0475 17 14.0396 17C14.0316 17 14.0236 17 14.0157 17C14.0077 17 13.9998 17 13.9918 17C13.9838 17 13.9759 17 13.9679 17C13.9599 17 13.952 17 13.944 17C13.936 17 13.9281 17 13.9201 17C13.9121 17 13.9042 17 13.8962 17C13.8882 17 13.8803 17 13.8723 17C13.8644 17 13.8564 17 13.8484 17C13.8405 17 13.8325 17 13.8245 17C13.8166 17 13.8086 17 13.8006 17C13.7927 17 13.7847 17 13.7767 17C13.7688 17 13.7608 17 13.7528 17C13.7449 17 13.7369 17 13.729 17C13.721 17 13.713 17 13.7051 17C13.6971 17 13.6891 17 13.6812 17C13.6732 17 13.6652 17 13.6573 17C13.6493 17 13.6414 17 13.6334 17C13.6254 17 13.6175 17 13.6095 17C13.6015 17 13.5936 17 13.5856 17C13.5777 17 13.5697 17 13.5617 17C13.5538 17 13.5458 17 13.5379 17C13.5299 17 13.5219 17 13.514 17C13.506 17 13.4981 17 13.4901 17C13.4821 17 13.4742 17 13.4662 17C13.4583 17 13.4503 17 13.4424 17C13.4344 17 13.4265 17 13.4185 17C13.4105 17 13.4026 17 13.3946 17C13.3867 17 13.3787 17 13.3708 17C13.3628 17 13.3549 17 13.3469 17C13.339 17 13.331 17 13.3231 17C13.3151 17 13.3072 17 13.2992 17C13.2913 17 13.2833 17 13.2754 17C13.2674 17 13.2595 17 13.2515 17C13.2436 17 13.2357 17 13.2277 17C13.2198 17 13.2118 17 13.2039 17C13.196 17 13.188 17 13.1801 17C13.1721 17 13.1642 17 13.1563 17C13.1483 17 13.1404 17 13.1324 17C13.1245 17 13.1166 17 13.1086 17C13.1007 17 13.0928 17 13.0848 17C13.0769 17 13.069 17 13.0611 17C13.0531 17 13.0452 17 13.0373 17C13.0293 17 13.0214 17 13.0135 17C13.0056 17 12.9976 17 12.9897 17C12.9818 17 12.9739 17 12.966 17C12.958 17 12.9501 17 12.9422 17C12.9343 17 12.9264 17 12.9185 17C12.9105 17 12.9026 17 12.8947 17C12.8868 17 12.8789 17 12.871 17C12.8631 17 12.8552 17 12.8473 17C12.8393 17 12.8314 17 12.8235 17C12.8156 17 12.8077 17 12.7998 17C12.7919 17 12.784 17 12.7761 17C12.7682 17 12.7603 17 12.7524 17C12.7445 17 12.7366 17 12.7288 17C12.7209 17 12.713 17 12.7051 17C12.6972 17 12.6893 17 12.6814 17C12.6735 17 12.6657 17 12.6578 17C12.6499 17 12.642 17 12.6341 17C12.6262 17 12.6184 17 12.6105 17C12.6026 17 12.5947 17 12.5869 17C12.579 17 12.5711 17 12.5633 17C12.5554 17 12.5475 17 12.5397 17C12.5318 17 12.5239 17 12.5161 17C12.5082 17 12.5003 17 12.4925 17C12.4846 17 12.4768 17 12.4689 17C12.4611 17 12.4532 17 12.4454 17C12.4375 17 12.4297 17 12.4218 17C12.414 17 12.4061 17 12.3983 17C12.3904 17 12.3826 17 12.3748 17C12.3669 17 12.3591 17 12.3513 17C12.3434 17 12.3356 17 12.3278 17C12.3199 17 12.3121 17 12.3043 17C12.2965 17 12.2886 17 12.2808 17C12.273 17 12.2652 17 12.2573 17C12.2495 17 12.2417 17 12.2339 17C12.2261 17 12.2183 17 12.2105 17C12.2027 17 12.1949 17 12.1871 17C12.1793 17 12.1715 17 12.1637 17C12.1559 17 12.1481 17 12.1403 17C12.1325 17 12.1247 17 12.1169 17C12.1091 17 12.1013 17 12.0935 17C12.0857 17 12.078 17 12.0702 17C12.0624 17 12.0546 17 12.0469 17C12.0391 17 12.0313 17 12.0235 17C12.0158 17 12.008 17 12.0002 17C11.9925 17 11.9847 17 11.977 17C11.9692 17 11.9614 17 11.9537 17C11.9459 17 11.9382 17 11.9304 17C11.9227 17 11.9149 17 11.9072 17C11.8995 17 11.8917 17 11.884 17C11.8762 17 11.8685 17 11.8608 17C11.853 17 11.8453 17 11.8376 17C11.8299 17 11.8221 17 11.8144 17C11.8067 17 11.799 17 11.7913 17C11.7836 17 11.7758 17 11.7681 17C11.7604 17 11.7527 17 11.745 17C11.7373 17 11.7296 17 11.7219 17C11.7142 17 11.7065 17 11.6988 17C11.6911 17 11.6834 17 11.6758 17C11.6681 17 11.6604 17 11.6527 17C11.645 17 11.6374 17 11.6297 17C11.622 17 11.6143 17 11.6067 17C11.599 17 11.5913 17 11.5837 17C11.576 17 11.5684 17 11.5607 17C11.5531 17 11.5454 17 11.5378 17C11.5301 17 11.5225 17 11.5148 17C11.5072 17 11.4996 17 11.4919 17C11.4843 17 11.4767 17 11.469 17C11.4614 17 11.4538 17 11.4462 17C11.4385 17 11.4309 17 11.4233 17C11.4157 17 11.4081 17 11.4005 17C11.3929 17 11.3853 17 11.3777 17C11.3701 17 11.3625 17 11.3549 17C11.3473 17 11.3397 17 11.3321 17C11.3245 17 11.3169 17 11.3093 17C11.3018 17 11.2942 17 11.2866 17C11.279 17 11.2715 17 11.2639 17C11.2563 17 11.2488 17 11.2412 17C11.2337 17 11.2261 17 11.2186 17C11.211 17 11.2035 17 11.1959 17C11.1884 17 11.1808 17 11.1733 17C11.1658 17 11.1582 17 11.1507 17C11.1432 17 11.1357 17 11.1281 17C11.1206 17 11.1131 17 11.1056 17C11.0981 17 11.0906 17 11.0831 17C11.0756 17 11.0681 17 11.0606 17C11.0531 17 11.0456 17 11.0381 17C11.0306 17 11.0231 17 11.0156 17C11.0082 17 11.0007 17 10.9932 17C10.9857 17 10.9783 17 10.9708 17C10.9633 17 10.9559 17 10.9484 17C10.941 17 10.9335 17 10.9261 17C10.9186 17 10.9112 17 10.9037 17C10.8963 17 10.8889 17 10.8814 17C10.874 17 10.8666 17 10.8591 17C10.8517 17 10.8443 17 10.8369 17C10.8295 17 10.8221 17 10.8147 17C10.8073 17 10.7999 17 10.7925 17C10.7851 17 10.7777 17 10.7703 17C10.7629 17 10.7555 17 10.7481 17C10.7407 17 10.7334 17 10.726 17C10.7186 17 10.7113 17 10.7039 17C10.6965 17 10.6892 17 10.6818 17C10.6745 17 10.6671 17 10.6598 17C10.6524 17 10.6451 17 10.6378 17C10.6304 17 10.6231 17 10.6158 17C10.6084 17 10.6011 17 10.5938 17C10.5865 17 10.5792 17 10.5719 17C10.5646 17 10.5573 17 10.55 17C10.5427 17 10.5354 17 10.5281 17C10.5208 17 10.5135 17 10.5062 17C10.499 17 10.4917 17 10.4844 17C10.4771 17 10.4699 17 10.4626 17C10.4554 17 10.4481 17 10.4409 17C10.4336 17 10.4264 17 10.4191 17C10.4119 17 10.4046 17 10.3974 17C10.3902 17 10.383 17 10.3757 17C10.3685 17 10.3613 17 10.3541 17C10.3469 17 10.3397 17 10.3325 17C10.3253 17 10.3181 17 10.3109 17C10.3037 17 10.2965 17 10.2893 17C10.2822 17 10.275 17 10.2678 17C10.2606 17 10.2535 17 10.2463 17C10.2392 17 10.232 17 10.2249 17C10.2177 17 10.2106 17 10.2034 17C10.1963 17 10.1892 17 10.182 17C10.1749 17 10.1678 17 10.1607 17C10.1535 17 10.1464 17 10.1393 17C10.1322 17 10.1251 17 10.118 17C10.1109 17 10.1038 17 10.0967 17C10.0897 17 10.0826 17 10.0755 17C10.0684 17 10.0614 17 10.0543 17C10.0472 17 10.0402 17 10.0331 17C10.0261 17 10.019 17 10.012 17C10.0049 17 9.9979 17 9.99087 17C9.98384 17 9.97682 17 9.9698 17C9.96278 17 9.95576 17 9.94876 17C9.94175 17 9.93474 17 9.92775 17C9.92075 17 9.91376 17 9.90677 17C9.89979 17 9.89281 17 9.88583 17C9.87886 17 9.87189 17 9.86493 17C9.85797 17 9.85101 17 9.84406 17C9.83711 17 9.83016 17 9.82322 17C9.81628 17 9.80935 17 9.80242 17C9.79549 17 9.78857 17 9.78166 17C9.77474 17 9.76783 17 9.76093 17C9.75402 17 9.74712 17 9.74023 17C9.73334 17 9.72645 17 9.71957 17C9.71269 17 9.70582 17 9.69895 17C9.69208 17 9.68522 17 9.67836 17C9.67151 17 9.66466 17 9.65781 17C9.65097 17 9.64413 17 9.6373 17C9.63047 17 9.62364 17 9.61682 17C9.61 17 9.60319 17 9.59638 17C9.58958 17 9.58277 17 9.57598 17C9.56919 17 9.5624 17 9.55561 17C9.54883 17 9.54206 17 9.53529 17C9.52852 17 9.52175 17 9.515 17C9.50824 17 9.50149 17 9.49474 17C9.488 17 9.48126 17 9.47453 17C9.4678 17 9.46107 17 9.45436 17C9.44764 17 9.44092 17 9.43422 17C9.42751 17 9.42081 17 9.41412 17C9.40743 17 9.40074 17 9.39406 17C9.38738 17 9.38071 17 9.37404 17C9.36737 17 9.36071 17 9.35406 17C9.34741 17 9.34076 17 9.33412 17C9.32748 17 9.32085 17 9.31422 17C9.30759 17 9.30097 17 9.29436 17C9.28774 17 9.28114 17 9.27454 17C9.26794 17 9.26134 17 9.25476 17C9.24817 17 9.24159 17 9.23501 17C9.22844 17 9.22188 17 9.21532 17C9.20876 17 9.2022 17 9.19566 17C9.18911 17 9.18257 17 9.17604 17C9.16951 17 9.16298 17 9.15646 17C9.14995 17 9.14343 17 9.13693 17C9.13042 17 9.12393 17 9.11744 17C9.11095 17 9.10446 17 9.09799 17C9.09151 17 9.08504 17 9.07858 17C9.07212 17 9.06566 17 9.05921 17C9.05276 17 9.04632 17 9.03989 17C9.03345 17 9.02703 17 9.02061 17C9.01419 17 9.00777 17 9.00137 17C8.99496 17 8.98857 17 8.98217 17C8.97578 17 8.9694 17 8.96302 17C8.95665 17 8.95028 17 8.94392 17C8.93755 17 8.9312 17 8.92485 17C8.9185 17 8.91216 17 8.90583 17C8.8995 17 8.89317 17 8.88685 17C8.88054 17 8.87423 17 8.86792 17C8.86162 17 8.85532 17 8.84904 17C8.84275 17 8.83647 17 8.83019 17C8.82392 17 8.81765 17 8.8114 17C8.80514 17 8.79889 17 8.79264 17C8.7864 17 8.78017 17 8.77394 17C8.76771 17 8.76149 17 8.75528 17C8.74906 17 8.74286 17 8.73666 17C8.73046 17 8.72427 17 8.71809 17C8.71191 17 8.70573 17 8.69957 17C8.6934 17 8.68724 17 8.68109 17C8.67494 17 8.66879 17 8.66266 17C8.65652 17 8.6504 17 8.64427 17C8.63815 17 8.63204 17 8.62594 17C8.61983 17 8.61374 17 8.60765 17C8.60156 17 8.59548 17 8.58941 17C8.58333 17 8.57727 17 8.57121 17C8.56515 17 8.5591 17 8.55306 17C8.54702 17 8.54099 17 8.53496 17C8.52894 17 8.52292 17 8.51691 17C8.5109 17 8.5049 17 8.49891 17C8.49292 17 8.48693 17 8.48095 17C8.47498 17 8.46901 17 8.46305 17C8.45709 17 8.45114 17 8.44519 17C8.43925 17 8.43331 17 8.42738 17C8.42146 17 8.41554 17 8.40963 17C8.40372 17 8.39781 17 8.39192 17C8.38602 17 8.38014 17 8.37426 17C8.36838 17 8.36251 17 8.35665 17C8.35079 17 8.34493 17 8.33909 17C8.33325 17 8.32741 17 8.32158 17C8.31575 17 8.30993 17 8.30412 17C8.29831 17 8.29251 17 8.28672 17C8.28092 17 8.27514 17 8.26936 17C8.26358 17 8.25781 17 8.25205 17C8.24629 17 8.24054 17 8.2348 17C8.22906 17 8.22332 17 8.2176 17C8.21187 17 8.20615 17 8.20045 17C8.19474 17 8.18904 17 8.18335 17C8.17766 17 8.17197 17 8.1663 17C8.16063 17 8.15496 17 8.14931 17C8.14365 17 8.138 17 8.13236 17C8.12672 17 8.12109 17 8.11547 17C8.10985 17 8.10424 17 8.09864 17C8.09303 17 8.08744 17 8.08185 17C8.07627 17 8.07069 17 8.06512 17C8.05956 17 8.054 17 8.04845 17C8.0429 17 8.03736 17 8.03182 17C8.02629 17 8.02077 17 8.01525 17C8.00974 17 8.00424 17 7.99874 17C7.99324 17 7.98776 17 7.98228 17C7.9768 17 7.97133 17 7.96587 17C7.96041 17 7.95496 17 7.94952 17C7.94408 17 7.93865 17 7.93323 17C7.9278 17 7.92239 17 7.91698 17C7.91158 17 7.90618 17 7.9008 17C7.89541 17 7.89003 17 7.88467 17C7.8793 17 7.87394 17 7.86859 17C7.86324 17 7.8579 17 7.85257 17C7.84724 17 7.84192 17 7.83661 17C7.8313 17 7.826 17 7.8207 17C7.81541 17 7.81013 17 7.80485 17C7.79958 17 7.79431 17 7.78906 17C7.7838 17 7.77856 17 7.77332 17C7.76809 17 7.76286 17 7.75764 17C7.75243 17 7.74722 17 7.74202 17C7.73682 17 7.73163 17 7.72646 17C7.72128 17 7.71611 17 7.71095 17C7.70579 17 7.70064 17 7.6955 17C7.69036 17 7.68523 17 7.68011 17C7.67499 17 7.66988 17 7.66477 17C7.65967 17 7.65458 17 7.6495 17C7.64442 17 7.63935 17 7.63428 17C7.62922 17 7.62417 17 7.61913 17C7.61408 17 7.60905 17 7.60403 17C7.59901 17 7.59399 17 7.58899 17C7.58399 17 7.57899 17 7.57401 17C7.56903 17 7.56406 17 7.55909 17C7.55413 17 7.54918 17 7.54423 17C7.53929 17 7.53436 17 7.52943 17C7.52451 17 7.5196 17 7.51469 17C7.50979 17 7.5049 17 7.50001 17V18Z" fill="#484A54"/>
</svg>
