<svg width="11" height="7" viewBox="0 0 11 7" fill="none" xmlns="http://www.w3.org/2000/svg">
<path d="M1.35355 2.64645C1.15829 2.45118 0.841709 2.45118 0.646447 2.64645C0.451184 2.84171 0.451184 3.15829 0.646447 3.35355L1.35355 2.64645ZM4.5 6.5L4.14645 6.85355C4.34171 7.04882 4.65829 7.04882 4.85355 6.85355L4.5 6.5ZM10.8536 0.853553C11.0488 0.658291 11.0488 0.341709 10.8536 0.146447C10.6583 -0.0488155 10.3417 -0.0488155 10.1464 0.146447L10.8536 0.853553ZM0.646447 3.35355L4.14645 6.85355L4.85355 6.14645L1.35355 2.64645L0.646447 3.35355ZM4.85355 6.85355L10.8536 0.853553L10.1464 0.146447L4.14645 6.14645L4.85355 6.85355Z" />
</svg>
