<svg width="24" height="24" viewBox="0 0 24 24" fill="none" xmlns="http://www.w3.org/2000/svg">
<path d="M3.9971 4.44626C3.96742 4.17172 3.7208 3.97322 3.44626 4.0029C3.17172 4.03258 2.97322 4.2792 3.0029 4.55374L3.9971 4.44626ZM20 4.5V4C19.7497 4 19.538 4.18503 19.5045 4.43304L20 4.5ZM22.5 5C22.7761 5 23 4.77614 23 4.5C23 4.22386 22.7761 4 22.5 4V5ZM1 4C0.723858 4 0.5 4.22386 0.5 4.5C0.5 4.77614 0.723858 5 1 5V4ZM17.7341 21.2678L17.2386 21.2009L17.7341 21.2678ZM5.30702 21.215L4.80992 21.2687L5.30702 21.215ZM3.0029 4.55374L4.80992 21.2687L5.80413 21.1612L3.9971 4.44626L3.0029 4.55374ZM7.29544 23.5H15.7521V22.5H7.29544V23.5ZM18.2296 21.3348L20.4955 4.56696L19.5045 4.43304L17.2386 21.2009L18.2296 21.3348ZM20 5H22.5V4H20V5ZM7.5 4H1V5H7.5V4ZM8 4.5V2H7V4.5H8ZM8.5 1.5H14.5V0.5H8.5V1.5ZM22.5 4H15.5V5H22.5V4ZM15.5 4H7.5V5H15.5V4ZM15 2V4.5H16V2H15ZM14.5 1.5C14.7761 1.5 15 1.72386 15 2H16C16 1.17157 15.3284 0.5 14.5 0.5V1.5ZM8 2C8 1.72386 8.22386 1.5 8.5 1.5V0.5C7.67157 0.5 7 1.17157 7 2H8ZM15.7521 23.5C17.0034 23.5 18.062 22.5748 18.2296 21.3348L17.2386 21.2009C17.138 21.9449 16.5029 22.5 15.7521 22.5V23.5ZM4.80992 21.2687C4.94714 22.538 6.01873 23.5 7.29544 23.5V22.5C6.52941 22.5 5.88646 21.9228 5.80413 21.1612L4.80992 21.2687Z" fill="#484A54"/>
</svg>
