<svg width="24" height="24" viewBox="0 0 24 24" fill="none" xmlns="http://www.w3.org/2000/svg">
<mask id="path-1-inside-1_112_9401" fill="white">
<path d="M2 24H12.9909C13.0461 24 13.0909 23.9552 13.0909 23.9V15.3727C13.0909 15.3175 13.0461 15.2727 12.9909 15.2727H9.91818C9.86295 15.2727 9.81818 15.228 9.81818 15.1727V12.1C9.81818 12.0448 9.86295 12 9.91818 12H12.9909C13.0461 12 13.0909 11.9552 13.0909 11.9V8.36364C13.0909 6.1545 14.8818 4.36364 17.0909 4.36364H19.5364C19.5916 4.36364 19.6364 4.40841 19.6364 4.46364V7.53636C19.6364 7.59159 19.5916 7.63636 19.5364 7.63636H16.6636C16.498 7.63636 16.3636 7.77068 16.3636 7.93636V11.9C16.3636 11.9552 16.4084 12 16.4636 12H19.5364C19.5916 12 19.6364 12.0448 19.6364 12.1V15.1727C19.6364 15.228 19.5916 15.2727 19.5364 15.2727H16.4636C16.4084 15.2727 16.3636 15.3175 16.3636 15.3727V23.9C16.3636 23.9552 16.4084 24 16.4636 24H22C23.1046 24 24 23.1046 24 22V2C24 0.895431 23.1046 0 22 0H2C0.895431 0 0 0.89543 0 2V22C0 23.1046 0.89543 24 2 24Z"/>
</mask>
<path d="M12.9909 23H2V25H12.9909V23ZM1 22V2H-1V22H1ZM2 1H22V-1H2V1ZM23 2V22H25V2H23ZM22 23H16.4636V25H22V23ZM17.3636 23.9V15.3727H15.3636V23.9H17.3636ZM16.4636 16.2727H19.5364V14.2727H16.4636V16.2727ZM20.6364 15.1727V12.1H18.6364V15.1727H20.6364ZM19.5364 11H16.4636V13H19.5364V11ZM17.3636 11.9V7.93636H15.3636V11.9H17.3636ZM16.6636 8.63636H19.5364V6.63636H16.6636V8.63636ZM20.6364 7.53636V4.46364H18.6364V7.53636H20.6364ZM19.5364 3.36364H17.0909V5.36364H19.5364V3.36364ZM12.0909 8.36364V11.9H14.0909V8.36364H12.0909ZM12.9909 11H9.91818V13H12.9909V11ZM8.81818 12.1V15.1727H10.8182V12.1H8.81818ZM9.91818 16.2727H12.9909V14.2727H9.91818V16.2727ZM12.0909 15.3727V23.9H14.0909V15.3727H12.0909ZM12.9909 16.2727C12.4939 16.2727 12.0909 15.8698 12.0909 15.3727H14.0909C14.0909 14.7652 13.5984 14.2727 12.9909 14.2727V16.2727ZM8.81818 15.1727C8.81818 15.7802 9.31067 16.2727 9.91818 16.2727V14.2727C10.4152 14.2727 10.8182 14.6757 10.8182 15.1727H8.81818ZM9.91818 11C9.31067 11 8.81818 11.4925 8.81818 12.1H10.8182C10.8182 12.5971 10.4152 13 9.91818 13V11ZM12.0909 11.9C12.0909 11.4029 12.4939 11 12.9909 11V13C13.5984 13 14.0909 12.5075 14.0909 11.9H12.0909ZM17.0909 3.36364C14.3295 3.36364 12.0909 5.60221 12.0909 8.36364H14.0909C14.0909 6.70678 15.4341 5.36364 17.0909 5.36364V3.36364ZM20.6364 4.46364C20.6364 3.85612 20.1439 3.36364 19.5364 3.36364V5.36364C19.0393 5.36364 18.6364 4.96069 18.6364 4.46364H20.6364ZM19.5364 8.63636C20.1439 8.63636 20.6364 8.14388 20.6364 7.53636H18.6364C18.6364 7.03931 19.0393 6.63636 19.5364 6.63636V8.63636ZM17.3636 7.93636C17.3636 8.32296 17.0502 8.63636 16.6636 8.63636V6.63636C15.9457 6.63636 15.3636 7.2184 15.3636 7.93636H17.3636ZM16.4636 11C16.9607 11 17.3636 11.4029 17.3636 11.9H15.3636C15.3636 12.5075 15.8561 13 16.4636 13V11ZM20.6364 12.1C20.6364 11.4925 20.1439 11 19.5364 11V13C19.0393 13 18.6364 12.5971 18.6364 12.1H20.6364ZM19.5364 16.2727C20.1439 16.2727 20.6364 15.7802 20.6364 15.1727H18.6364C18.6364 14.6757 19.0393 14.2727 19.5364 14.2727V16.2727ZM17.3636 15.3727C17.3636 15.8698 16.9607 16.2727 16.4636 16.2727V14.2727C15.8561 14.2727 15.3636 14.7652 15.3636 15.3727H17.3636ZM16.4636 23C16.9607 23 17.3636 23.4029 17.3636 23.9H15.3636C15.3636 24.5075 15.8561 25 16.4636 25V23ZM23 22C23 22.5523 22.5523 23 22 23V25C23.6569 25 25 23.6569 25 22H23ZM22 1C22.5523 1 23 1.44772 23 2H25C25 0.343146 23.6569 -1 22 -1V1ZM1 2C1 1.44772 1.44772 1 2 1V-1C0.343146 -1 -1 0.343145 -1 2H1ZM2 23C1.44772 23 1 22.5523 1 22H-1C-1 23.6569 0.343145 25 2 25V23ZM12.9909 25C13.5984 25 14.0909 24.5075 14.0909 23.9H12.0909C12.0909 23.4029 12.4939 23 12.9909 23V25Z" fill="#1F2026" mask="url(#path-1-inside-1_112_9401)"/>
<rect x="13" y="23" width="4" height="1" fill="#1F2026"/>
</svg>
