<svg width="24" height="24" viewBox="0 0 24 24" fill="none" xmlns="http://www.w3.org/2000/svg">
<path d="M8.32083 3.61651C8.10903 3.43932 7.7937 3.46737 7.61651 3.67917C7.43932 3.89097 7.46737 4.2063 7.67917 4.38349L8.32083 3.61651ZM17 11.5294L17.3427 11.8935C17.4468 11.7955 17.504 11.6577 17.4998 11.5148C17.4956 11.3719 17.4305 11.2376 17.3208 11.1459L17 11.5294ZM7.65732 19.6359C7.45623 19.8252 7.44664 20.1416 7.6359 20.3427C7.82516 20.5438 8.1416 20.5534 8.34268 20.3641L7.65732 19.6359ZM7.67917 4.38349L16.6792 11.9129L17.3208 11.1459L8.32083 3.61651L7.67917 4.38349ZM16.6573 11.1653L7.65732 19.6359L8.34268 20.3641L17.3427 11.8935L16.6573 11.1653Z" fill="#484A54"/>
</svg>
