<svg width="16" height="16" viewBox="0 0 16 16" fill="none" xmlns="http://www.w3.org/2000/svg">
<path d="M11.6 0.666626C10.1667 0.66884 8.82396 1.36793 8 2.54071C7.17604 1.36793 5.83333 0.66884 4.4 0.666626C2.05599 0.666626 0 2.84749 0 5.33329C0 7.75595 1.36797 10.2511 3.95625 12.5493C5.15547 13.6121 6.47096 14.5359 7.8776 15.3035C7.95443 15.3431 8.04557 15.3431 8.1224 15.3035C9.52852 14.5359 10.8436 13.6119 12.0424 12.5493C14.632 10.2511 16 7.75595 16 5.33329C16 2.84749 13.944 0.666626 11.6 0.666626V0.666626ZM8 14.7634C7.02057 14.2229 0.533333 10.4468 0.533333 5.33329C0.533333 3.13147 2.33997 1.19996 4.4 1.19996C5.79557 1.20243 7.08203 1.9553 7.76771 3.17092C7.81901 3.24931 7.90638 3.29644 8 3.29644C8.09362 3.29644 8.18099 3.24931 8.23229 3.17092C8.91797 1.9553 10.2044 1.20243 11.6 1.19996C13.66 1.19996 15.4667 3.13147 15.4667 5.33329C15.4667 10.4468 8.97943 14.2229 8 14.7634Z" fill="#484A54"/>
</svg>
