<svg width="24" height="24" viewBox="0 0 24 24" fill="none" xmlns="http://www.w3.org/2000/svg">
<rect opacity="0.8" width="24" height="24" rx="4" fill="white"/>
<path d="M15.6 4.66663C14.1667 4.66884 12.824 5.36793 12 6.54071C11.176 5.36793 9.83333 4.66884 8.4 4.66663C6.05599 4.66663 4 6.84749 4 9.33329C4 11.7559 5.36797 14.2511 7.95625 16.5493C9.15547 17.6121 10.471 18.5359 11.8776 19.3035C11.9544 19.3431 12.0456 19.3431 12.1224 19.3035C13.5285 18.5359 14.8436 17.6119 16.0424 16.5493C18.632 14.2511 20 11.7559 20 9.33329C20 6.84749 17.944 4.66663 15.6 4.66663V4.66663ZM12 18.7634C11.0206 18.2229 4.53333 14.4468 4.53333 9.33329C4.53333 7.13147 6.33997 5.19996 8.4 5.19996C9.79557 5.20243 11.082 5.9553 11.7677 7.17092C11.819 7.24931 11.9064 7.29644 12 7.29644C12.0936 7.29644 12.181 7.24931 12.2323 7.17092C12.918 5.9553 14.2044 5.20243 15.6 5.19996C17.66 5.19996 19.4667 7.13147 19.4667 9.33329C19.4667 14.4468 12.9794 18.2229 12 18.7634Z" fill="#484A54"/>
</svg>
