<svg width="24" height="24" viewBox="0 0 24 24" fill="none" xmlns="http://www.w3.org/2000/svg">
<path d="M7.37752 3.82009C7.40514 3.79636 7.39484 3.787 7.51443 3.81671C7.63407 3.84669 7.83458 3.94673 8.04192 4.09735C8.45643 4.40189 8.91049 4.89785 9.1626 5.23478C9.17054 5.24598 9.17948 5.25534 9.18816 5.26476C9.8622 6.02929 10.2099 6.64653 10.2997 7.06099C10.3895 7.47434 10.3146 7.67555 10.0024 7.94828L9.19542 8.65472C8.67038 9.11431 8.51257 9.78181 8.55682 10.3663C8.60061 10.9512 8.8156 11.485 9.15701 11.873L12.1758 15.2969C12.5185 15.6835 13.0233 15.9646 13.5999 16.0839C14.1766 16.2036 14.8616 16.1333 15.3865 15.674L16.1951 14.97C16.5072 14.6972 16.7163 14.6495 17.1169 14.7915C17.5185 14.9333 18.087 15.3556 18.761 16.1196C18.7705 16.1307 18.7795 16.1401 18.79 16.1508C19.0924 16.4423 19.5272 16.9549 19.7772 17.404C19.9015 17.6278 19.9747 17.8378 19.9891 17.9608C20.0023 18.0827 19.997 18.0696 19.9691 18.0948L19.3566 18.6297C17.7682 19.7324 16.1412 19.8802 14.5685 19.4238C12.9915 18.968 11.4817 17.8742 10.3033 16.4731C10.2996 16.4709 10.2977 16.4669 10.2943 16.4651L7.7498 13.5783C7.74739 13.5744 7.74426 13.5723 7.74206 13.5681C6.49932 12.2236 5.60283 10.592 5.35153 8.97767C5.10122 7.36561 5.46205 5.7774 6.76719 4.35107L7.37752 3.82009ZM7.759 2.84122C7.43166 2.76103 7.0108 2.80229 6.712 3.0642L6.06405 3.63151C6.04919 3.64426 6.03622 3.65691 6.02319 3.6693C4.51785 5.31068 4.06421 7.26791 4.35445 9.13468C4.64369 11.0006 5.64276 12.7866 6.9961 14.252L9.52767 17.1216C9.52872 17.1214 9.53029 17.1211 9.53055 17.1224L9.53483 17.1303C10.8184 18.6507 12.4656 19.8634 14.2841 20.3909C16.1054 20.9182 18.1113 20.7245 19.9412 19.4507C19.9577 19.4403 19.9725 19.4289 19.9871 19.4173L20.6356 18.8502C20.9344 18.5883 21.0304 18.1808 20.9928 17.8476C20.9557 17.5129 20.8259 17.2098 20.6619 16.9157C20.3398 16.3341 19.877 15.8023 19.5086 15.4443C18.783 14.6253 18.1351 14.0835 17.461 13.8448C16.7822 13.6044 16.0549 13.755 15.5289 14.2147L14.7205 14.9201C14.4823 15.1286 14.1657 15.1746 13.8086 15.1006C13.4501 15.0264 13.0896 14.806 12.9358 14.633L9.91702 11.2091C9.7645 11.0361 9.5927 10.6505 9.56459 10.2888C9.53721 9.92522 9.62397 9.61994 9.86214 9.41119L10.6678 8.70637C11.1942 8.24678 11.4401 7.5492 11.2884 6.84718C11.1366 6.15007 10.6805 5.4367 9.95444 4.61185C9.64589 4.2046 9.17778 3.67908 8.6435 3.28804C8.37233 3.08869 8.08609 2.92145 7.759 2.84122Z" fill="#484A54"/>
</svg>
