<svg width="24" height="24" viewBox="0 0 24 24" fill="none" xmlns="http://www.w3.org/2000/svg">
<path d="M11.52 17.2512C12.9624 17.2512 14.2872 16.7352 15.3216 15.8808L17.7216 18.2808C17.8152 18.3744 17.9376 18.4224 18.06 18.4224C18.1824 18.4224 18.3048 18.3744 18.3984 18.2808C18.5856 18.0936 18.5856 17.7888 18.3984 17.6016L16.008 15.2112C16.9296 14.16 17.4888 12.7848 17.4888 11.2824C17.4888 7.98956 14.8104 5.31116 11.5176 5.31116C8.22483 5.31116 5.54883 7.98716 5.54883 11.28C5.54883 14.5728 8.22723 17.2512 11.52 17.2512ZM11.52 6.26876C14.2824 6.26876 16.5312 8.51516 16.5312 11.28C16.5312 14.0448 14.2824 16.2912 11.52 16.2912C8.75762 16.2912 6.50883 14.0424 6.50883 11.28C6.50883 8.51756 8.75762 6.26876 11.52 6.26876Z" fill="#484A54"/>
</svg>
