<svg width="24" height="24" viewBox="0 0 24 24" fill="none" xmlns="http://www.w3.org/2000/svg">
<path d="M21.5652 8.13099C21.1826 23.4307 8.33333 21.9691 1.95652 19.3259C5.4 19.699 7.85507 17.9265 8.65217 16.9936C5.5913 16.9936 3.55072 15.1278 2.91304 14.1949C4.06087 14.9412 5.30435 14.1949 5.78261 13.7284C2.33913 12.9821 1.15942 10.3078 1 9.0639C1.76522 9.81022 2.91304 9.68583 3.3913 9.53035C1.86087 7.29137 2.43478 5.17678 2.91304 4.39936C5.5913 9.25048 10.4058 10.1523 12.4783 9.9968C11.3304 4.39936 16.4638 3.93291 19.1739 4.39936L22.0435 3L20.6087 6.26517H23L21.5652 8.13099Z" stroke="#1F2026" stroke-linejoin="round"/>
</svg>
